# xmcd
# Track frame offsets:
# 150
# 14137
# 31049
# 44586
# 62473
# 76385
# 93972
# 108634
# 126296
# 142833
# 157570
# 171182
# 186444
# 199831
# 216143
# 229005
# 243817
# 259004
# 277341
#
# Disc length: 3967 seconds
# Revision: 3
# Processed by: cddbd v1.5.2PL0 Copyright (c) Steve Scherf et al.
# Submitted via: VisiTrax 2.11.2.271 - For more info visit www.synapsa.com
#
DISCID=060f7d13
DTITLE=Various Artist - Promo Only Country Radio - August 2009
DYEAR=2009
DGENRE=Country
TTITLE0=Trailer Choir - Rockin' The Beer Gut
TTITLE1=Montgomery Gentry - Long Line Of Losers
TTITLE2=Craig Morgan - Bonfire
TTITLE3=Brooks and Dunn - Indian Summer
TTITLE4=Jake Owen - Eight Second Ride (Album Version)
TTITLE5=Dean Brody - Gravity
TTITLE6=Steve Holy - Baby Don't Go
TTITLE7=Jason Michael Carroll - Hurry Home
TTITLE8=Lost Trailers - All This Love
TTITLE9=Sara Evans - Feels Just Like A Love Song
TTITLE10=Hoyt Hughes - Ain't My Day To Save The World
TTITLE11=Darren Kozelsky - Seven Vern Gosdins Ago
TTITLE12=Christopher Michael Johnson - The Day We Changed The Rules
TTITLE13=John Rich - Good Lord and The Man, The (Album Version)
TTITLE14=Easton Corbin - A Little More Country Than That
TTITLE15=Kenny Chesney - Out Last Night (Album Version)
TTITLE16=Sarah Jarosz - Left Home (Album Version)
TTITLE17=Marshall Crenshaw - Live and Learn
TTITLE18=Levon Helm - When I Go Away (Album Version)
EXTD=YEAR: 2009
EXTT0=
EXTT1=
EXTT2=
EXTT3=
EXTT4=
EXTT5=
EXTT6=
EXTT7=
EXTT8=
EXTT9=
EXTT10=
EXTT11=
EXTT12=
EXTT13=
EXTT14=
EXTT15=
EXTT16=
EXTT17=
EXTT18=
PLAYORDER=
